# xmcd CD database file
#
# Track frame offsets:
#	182
#	12549
#	24572
#	38091
#	50716
#	63552
#	76775
#	89509
#	100172
#	113343
#	127111
#	140909
#	155402
#	169544
#	181445
#	195833
#	208637
#	221088
#	234524
#	246062
#
# Disc length: 3468 seconds
#
# Revision: 0
# Processed by: cddbd v1.5.1PL2 Copyright (c) Steve Scherf et al.
# Submitted via: CDex 1.51
#
DISCID=130d8a14
DTITLE=Little Esther - The Chronological
DYEAR=2003
DGENRE=Blues
TTITLE0=Looking for a man
TTITLE1=Other lips, other arms
TTITLE2=Heart to heart
TTITLE3=The deacon moves in
TTITLE4=Don't make a fool out of me
TTITLE5=I'm a bad, bad gilr
TTITLE6=Cryin' and singin' the Blues
TTITLE7=Tell him that I need him so
TTITLE8=Ring-a-Ding-Doo
TTITLE9=I'll be there
TTITLE10=The crying Blues
TTITLE11=Summertime
TTITLE12=Hold me
TTITLE13=Better beware
TTITLE14=Somebody new
TTITLE15=Bring my lovin' back to me
TTITLE16=Aged and mellow
TTITLE17=I paid my dues
TTITLE18=Ramblin' Blues
TTITLE19=The storm
EXTD=YEAR: 2003
EXTT0=
EXTT1=
EXTT2=
EXTT3=
EXTT4=
EXTT5=
EXTT6=
EXTT7=
EXTT8=
EXTT9=
EXTT10=
EXTT11=
EXTT12=
EXTT13=
EXTT14=
EXTT15=
EXTT16=
EXTT17=
EXTT18=
EXTT19=
PLAYORDER=
